<svg
  viewBox="0 0 24 24"
  xmlns="http://www.w3.org/2000/svg"
  fill="currentColor"
>
  <path
    fill-rule="evenodd"
    clip-rule="evenodd"
    d="M7.801 6.6c.66 0 1.196.535 1.196 1.196 0 .55-.376 1.02-.912 1.154l-.137.026-.145.009H6.89l-.118.003-.315.02c-.506.06-.92.434-1.028.917l-.022.134-.007.138V17.4c0 .57.399 1.052.927 1.17l.135.023.138.007h7.197c.57 0 1.052-.399 1.17-.917l.022-.131.008-1.352a1.2 1.2 0 012.392-.14l.008.14v1.2a3.602 3.602 0 01-3.18 3.575l-.21.019-.21.006H6.6a3.602 3.602 0 01-3.575-3.18l-.019-.21L3 17.4v-7.203a3.597 3.597 0 013.386-3.59l.211-.007h1.204zM19.797 3a1.2 1.2 0 011.192 1.06l.008.14v8.4a1.2 1.2 0 01-2.392.14l-.008-.14V7.094l-6.012 6.016a1.2 1.2 0 01-1.463.183l-.121-.084-.113-.1a1.2 1.2 0 01-.1-1.583l.1-.113L16.9 5.399l-5.503.001a1.2 1.2 0 01-1.168-.925l-.024-.135-.008-.14a1.2 1.2 0 011.06-1.192l.14-.008h8.4z"
  />
</svg>
